<?xml version="1.0" standalone="no"?>
<!DOCTYPE svg PUBLIC "-//W3C//DTD SVG 20010904//EN"
 "http://www.w3.org/TR/2001/REC-SVG-20010904/DTD/svg10.dtd">
<svg version="1.0" xmlns="http://www.w3.org/2000/svg"
 width="512.000000pt" height="512.000000pt" viewBox="0 0 512.000000 512.000000"
 preserveAspectRatio="xMidYMid meet">
<metadata>
Created by potrace 1.14, written by Peter Selinger 2001-2017
</metadata>
<g transform="translate(0.000000,512.000000) scale(0.100000,-0.100000)"
fill="#000000" stroke="none">
<path d="M2516 4213 c-3 -4 -6 -33 -6 -66 0 -57 -1 -59 -22 -52 -59 18 -74 17
-106 -10 -36 -30 -57 -91 -49 -146 9 -68 92 -119 146 -89 17 9 26 9 36 0 30
-25 35 1 35 180 0 143 -3 179 -14 183 -8 3 -17 3 -20 0z m-22 -165 c22 -30 22
-131 0 -152 -8 -9 -31 -16 -49 -16 -29 0 -37 6 -51 32 -18 35 -13 98 12 136
20 30 67 30 88 0z"/>
<path d="M3040 4189 c0 -15 5 -20 22 -17 34 5 37 38 4 38 -20 0 -26 -5 -26
-21z"/>
<path d="M1560 4015 l0 -176 98 3 c78 2 97 6 97 18 0 12 -17 16 -77 18 l-78 3
0 154 c0 148 -1 155 -20 155 -19 0 -20 -7 -20 -175z"/>
<path d="M1863 4100 c-38 -15 -63 -68 -63 -132 0 -49 4 -62 28 -89 32 -36 100
-49 141 -27 80 43 77 204 -4 243 -37 17 -69 18 -102 5z m95 -42 c21 -26 32
-92 22 -130 -17 -61 -100 -74 -129 -19 -15 28 -14 86 3 126 14 32 19 35 54 35
22 0 44 -6 50 -12z"/>
<path d="M2124 4091 c-45 -28 -54 -82 -11 -65 8 3 17 14 20 25 4 14 14 19 39
19 41 0 58 -15 58 -52 0 -27 -2 -28 -49 -28 -64 0 -101 -28 -101 -76 0 -45 29
-74 74 -74 19 0 42 8 52 17 15 16 17 16 30 -1 21 -30 48 -13 40 25 -3 18 -6
67 -6 110 0 79 0 79 -32 99 -41 25 -74 25 -114 1z m106 -159 c0 -34 -32 -55
-76 -50 -21 2 -30 9 -32 24 -5 32 24 54 69 54 36 0 39 -2 39 -28z"/>
<path d="M2692 4094 c-18 -12 -27 -13 -35 -5 -6 6 -17 11 -24 11 -10 0 -13
-30 -13 -131 0 -119 2 -130 18 -127 14 3 18 18 22 106 5 111 11 122 62 122 39
0 52 -30 58 -135 4 -71 8 -90 20 -90 12 0 16 19 20 90 6 106 19 135 60 135 16
0 32 -6 37 -12 4 -7 10 -58 13 -113 4 -85 8 -100 23 -103 15 -3 17 7 17 105 0
121 -10 147 -59 158 -29 6 -69 -7 -83 -29 -4 -7 -13 -5 -25 6 -28 26 -84 32
-111 12z"/>
<path d="M3241 4094 c-19 -14 -28 -15 -42 -6 -37 24 -40 16 -37 -115 3 -120 4
-128 23 -128 18 0 20 8 23 95 2 70 7 99 19 112 19 21 66 24 81 5 6 -7 13 -58
14 -113 3 -91 5 -99 23 -99 19 0 20 7 20 107 0 94 -2 110 -20 127 -29 29 -75
36 -104 15z"/>
<path d="M3479 4095 c-69 -37 -75 -199 -9 -238 31 -19 85 -23 95 -7 11 18 25
11 25 -13 0 -39 -32 -59 -87 -55 -38 2 -48 0 -48 -12 0 -19 63 -35 100 -26 15
4 41 21 57 38 l28 30 0 144 c0 135 -1 144 -19 144 -11 0 -21 -5 -23 -11 -2 -6
-14 -5 -33 5 -37 19 -52 19 -86 1z m95 -47 c11 -15 16 -45 16 -86 0 -61 -1
-63 -31 -76 -38 -16 -66 -10 -80 17 -14 26 -7 130 10 151 20 24 67 20 85 -6z"/>
<path d="M3040 3975 c0 -104 3 -127 15 -132 9 -3 19 -3 22 1 4 3 7 61 7 129 1
119 0 122 -21 125 -23 3 -23 2 -23 -123z"/>
<path d="M2451 2486 c-34 -19 -39 -38 -40 -138 l-1 -88 -32 -14 c-37 -15 -83
-60 -75 -73 3 -5 -8 -15 -24 -22 -20 -9 -29 -20 -29 -37 0 -13 -6 -24 -13 -24
-13 0 -28 -24 -41 -62 -8 -27 20 -22 49 6 15 15 22 31 19 40 -4 11 -1 16 10
16 9 0 16 -8 16 -19 0 -11 5 -21 11 -23 16 -5 24 -95 10 -111 -6 -8 -12 -38
-14 -66 -2 -30 -9 -56 -17 -61 -7 -4 -11 -17 -7 -29 3 -12 1 -21 -3 -21 -5 0
-15 -3 -24 -6 -11 -4 -16 4 -21 33 -4 21 -13 71 -22 111 -8 40 -12 79 -9 87 6
16 -3 19 -19 7 -14 -9 -35 -81 -35 -116 0 -15 -4 -25 -9 -21 -5 3 -13 0 -16
-6 -10 -15 -34 -203 -36 -274 0 -33 -4 -70 -7 -82 -7 -23 -147 -173 -162 -173
-5 0 -18 -25 -29 -55 -30 -79 -33 -227 -6 -273 11 -17 23 -32 27 -32 4 0 21
-15 39 -34 22 -25 41 -36 72 -40 191 -24 219 -37 257 -113 14 -29 31 -52 38
-52 6 -1 12 -12 12 -25 0 -30 30 -42 60 -26 12 6 28 9 36 6 20 -8 83 19 90 39
4 8 18 15 34 15 22 0 31 7 44 35 10 20 22 32 29 29 24 -9 85 24 89 48 2 15 11
24 27 26 13 2 36 15 50 28 14 13 34 27 44 30 17 5 17 7 2 31 -15 23 -15 26 1
44 13 15 15 29 10 66 -3 26 -11 52 -16 57 -6 6 -10 24 -10 41 0 27 -6 33 -58
58 -63 30 -113 35 -132 13 -19 -24 -38 -8 -37 32 0 20 -7 63 -15 94 -8 32 -13
60 -10 62 2 3 7 22 9 43 2 21 8 42 13 47 5 5 61 8 124 7 73 -1 116 2 121 8 4
7 12 8 23 2 10 -6 23 -4 39 6 29 19 21 33 -20 33 l-32 0 25 13 c14 7 44 26 68
42 36 24 46 26 67 17 16 -8 33 -8 49 -3 16 7 32 5 51 -5 15 -8 33 -14 39 -14
7 0 20 -8 29 -17 9 -10 33 -35 53 -57 38 -38 64 -79 64 -98 0 -6 11 -24 26
-40 14 -17 23 -37 20 -44 -3 -9 7 -19 27 -28 18 -8 44 -26 60 -40 25 -23 27
-31 27 -101 0 -42 3 -74 8 -72 4 3 13 -1 20 -9 10 -11 8 -15 -8 -24 -16 -9
-20 -8 -20 5 0 8 -7 15 -16 15 -12 0 -14 -7 -9 -32 4 -18 12 -35 17 -37 5 -2
0 -10 -12 -18 -12 -8 -19 -21 -16 -28 6 -17 -19 -39 -36 -32 -34 12 -65 -34
-31 -47 13 -5 10 -11 -17 -31 -42 -31 -65 -65 -62 -91 2 -12 -9 -34 -25 -51
-15 -16 -45 -60 -67 -96 -22 -38 -46 -67 -55 -67 -21 -1 -45 -20 -54 -43 -5
-14 -11 -16 -27 -7 -11 6 -21 7 -21 3 -1 -4 -3 -24 -5 -43 -2 -19 -6 -40 -8
-46 -3 -7 3 -10 15 -7 10 3 19 0 19 -6 0 -6 -9 -11 -20 -11 -28 0 -34 -21 -15
-56 15 -28 15 -28 21 -7 5 19 11 22 33 17 14 -4 29 -9 34 -11 13 -7 -4 -24
-21 -21 -9 2 -17 -3 -16 -9 1 -7 2 -22 3 -33 1 -14 8 -20 26 -20 14 0 25 -4
25 -9 0 -5 14 -14 30 -21 17 -7 30 -16 30 -21 0 -5 11 -14 24 -19 18 -6 26
-19 31 -47 3 -23 14 -44 27 -52 17 -11 23 -10 39 8 19 20 52 27 114 22 28 -3
89 12 130 30 24 12 271 16 301 5 23 -7 38 -42 23 -51 -10 -7 -8 -58 3 -66 5
-3 -11 -16 -34 -30 l-43 -24 514 -3 c283 -1 516 0 518 2 3 2 -1 15 -8 28 -7
13 -15 82 -19 158 -6 108 -12 150 -33 210 -20 55 -27 95 -27 148 0 58 -6 85
-26 130 -18 38 -30 86 -36 145 -9 87 -55 231 -81 252 -19 16 -53 68 -61 93 -4
12 -22 33 -41 48 -18 14 -41 42 -51 62 -19 41 -54 92 -95 137 -34 39 -149 259
-149 286 0 12 -13 47 -29 78 -16 31 -34 67 -41 81 -38 83 -112 179 -231 298
-37 37 -74 81 -83 98 -22 45 -89 112 -117 118 -58 12 -84 13 -147 6 -64 -6
-519 21 -538 33 -5 3 -82 8 -171 11 l-161 6 -58 35 c-63 38 -111 44 -153 21z
m179 -222 c0 -32 -4 -44 -12 -41 -12 3 -20 62 -11 80 11 21 23 2 23 -39z m-77
-17 c15 -26 18 -40 10 -48 -12 -12 -53 46 -53 76 0 26 19 14 43 -28z m179 18
c-4 -21 -34 -64 -44 -65 -14 0 -8 45 8 68 18 26 41 24 36 -3z m88 -63 c0 -19
-74 -57 -91 -47 -17 11 -9 23 29 43 48 25 62 26 62 4z m-335 -8 c14 -9 25 -23
25 -30 0 -19 -26 -18 -34 1 -3 8 -12 15 -21 15 -8 0 -15 7 -15 15 0 19 15 19
45 -1z m-155 -83 c0 -4 -3 -11 -7 -14 -8 -9 -34 13 -28 24 6 9 35 1 35 -10z
m528 -2 c2 -13 -8 -18 -44 -22 -26 -3 -54 -3 -61 0 -23 9 -8 28 28 34 50 10
73 6 77 -12z m-363 -8 c3 -5 0 -13 -5 -16 -16 -10 -82 4 -75 16 8 12 72 12 80
0z m15 -71 c0 -5 -6 -10 -14 -10 -8 0 -16 -7 -20 -15 -7 -18 -36 -20 -36 -2 0
7 15 18 33 24 17 5 33 11 35 12 1 0 2 -3 2 -9z m290 -8 c26 -21 20 -42 -13
-42 -20 0 -67 38 -67 54 0 14 59 5 80 -12z m-54 -84 c3 -11 0 -25 -6 -33 -13
-15 -40 -9 -40 9 0 6 -7 24 -15 40 -9 16 -13 36 -10 44 4 12 12 9 35 -13 16
-16 32 -37 36 -47z m-109 36 c3 -9 1 -25 -6 -36 -9 -15 -9 -22 3 -34 18 -18
10 -46 -13 -42 -16 3 -24 57 -15 106 5 26 22 29 31 6z m165 -150 c-22 -15 -42
-12 -42 7 0 5 15 9 32 9 32 0 32 0 10 -16z m-552 -125 c0 -5 -4 -9 -10 -9 -5
0 -10 7 -10 16 0 8 5 12 10 9 6 -3 10 -10 10 -16z m335 -519 c-3 -5 -10 -10
-16 -10 -5 0 -9 5 -9 10 0 6 7 10 16 10 8 0 12 -4 9 -10z m-211 -122 c8 -13 7
-21 -1 -29 -18 -18 -63 5 -63 31 0 17 5 21 26 18 15 -2 32 -11 38 -20z m1483
-827 c15 -20 17 -39 2 -24 -7 7 -24 8 -51 1 -33 -7 -44 -6 -60 9 -19 17 -19
18 -1 31 23 16 93 6 110 -17z m-582 -91 c3 -6 -1 -13 -10 -16 -19 -8 -30 0
-20 15 8 14 22 14 30 1z"/>
<path d="M3400 1176 c0 -9 5 -16 10 -16 6 0 10 4 10 9 0 6 -4 13 -10 16 -5 3
-10 -1 -10 -9z"/>
</g>
</svg>
